HIERARCHY
ROOT	Hips
{
	OFFSET	0.000	0.000	0.000
	CHANNELS	6	Xposition	Yposition	Zposition	Yrotation	Xrotation	Zrotation
	JOINT	LeftThigh
	{
		OFFSET	7.642	-0.000	-0.000
		CHANNELS	3	Yrotation	Xrotation	Zrotation
		JOINT	LeftShin
		{
			OFFSET	0.000	-40.759	0.000
			CHANNELS	3	Yrotation	Xrotation	Zrotation
			JOINT	LeftFoot
			{
				OFFSET	0.000	-40.854	-0.059
				CHANNELS	3	Yrotation	Xrotation	Zrotation
				JOINT	LeftToe
				{
					OFFSET	0.000	-12.409	5.879
					CHANNELS	3	Yrotation	Xrotation	Zrotation
					End Site
					{
						OFFSET	0.000	-7.016	1.185
					}
				}
			}
		}
	}
	JOINT	RightThigh
	{
		OFFSET	-7.642	0.000	-0.000
		CHANNELS	3	Yrotation	Xrotation	Zrotation
		JOINT	RightShin
		{
			OFFSET	-0.000	-40.759	0.000
			CHANNELS	3	Yrotation	Xrotation	Zrotation
			JOINT	RightFoot
			{
				OFFSET	-0.000	-40.854	-0.059
				CHANNELS	3	Yrotation	Xrotation	Zrotation
				JOINT	RightToe
				{
					OFFSET	-0.000	-12.409	5.879
					CHANNELS	3	Yrotation	Xrotation	Zrotation
					End Site
					{
						OFFSET	0.000	-7.016	1.185
					}
				}
			}
		}
	}
	JOINT	Spine1
	{
		OFFSET	0.000	8.005	-3.725
		CHANNELS	3	Yrotation	Xrotation	Zrotation
		JOINT	Spine2
		{
			OFFSET	0.000	-7.164	-0.000
			CHANNELS	3	Yrotation	Xrotation	Zrotation
			JOINT	Spine3
			{
				OFFSET	0.000	-7.164	0.000
				CHANNELS	3	Yrotation	Xrotation	Zrotation
				JOINT	Spine4
				{
					OFFSET	0.000	-12.097	-0.000
					CHANNELS	3	Yrotation	Xrotation	Zrotation
					JOINT	LeftShoulder
					{
						OFFSET	-6.642	-11.736	1.807
						CHANNELS	3	Yrotation	Xrotation	Zrotation
						JOINT	LeftArm
						{
							OFFSET	0.000	-12.849	-0.000
							CHANNELS	3	Yrotation	Xrotation	Zrotation
							JOINT	LeftForeArm
							{
								OFFSET	0.000	-24.625	0.000
								CHANNELS	3	Yrotation	Xrotation	Zrotation
								JOINT	LeftHand
								{
									OFFSET	-0.000	-27.116	0.000
									CHANNELS	3	Yrotation	Xrotation	Zrotation
									JOINT	LeftFinger1Metacarpal
									{
										OFFSET	2.664	-1.988	0.099
										CHANNELS	3	Yrotation	Xrotation	Zrotation
										JOINT	LeftFinger1Proximal
										{
											OFFSET	0.000	-3.769	0.000
											CHANNELS	3	Yrotation	Xrotation	Zrotation
											JOINT	LeftFinger1Distal
											{
												OFFSET	0.000	-2.861	-0.000
												CHANNELS	3	Yrotation	Xrotation	Zrotation
												End Site
												{
													OFFSET	0.000	-3.269	-0.000
												}
											}
										}
									}
									JOINT	LeftFinger2Metacarpal
									{
										OFFSET	1.534	-2.531	0.099
										CHANNELS	3	Yrotation	Xrotation	Zrotation
										JOINT	LeftFinger2Proximal
										{
											OFFSET	-0.000	-5.243	-0.000
											CHANNELS	3	Yrotation	Xrotation	Zrotation
											JOINT	LeftFinger2Medial
											{
												OFFSET	-0.000	-4.425	0.000
												CHANNELS	3	Yrotation	Xrotation	Zrotation
												JOINT	LeftFinger2Distal
												{
													OFFSET	-0.000	-2.723	-0.000
													CHANNELS	3	Yrotation	Xrotation	Zrotation
													End Site
													{
														OFFSET	-0.000	-2.668	-0.000
													}
												}
											}
										}
									}
									JOINT	LeftFinger3Metacarpal
									{
										OFFSET	0.521	-2.647	0.099
										CHANNELS	3	Yrotation	Xrotation	Zrotation
										JOINT	LeftFinger3Proximal
										{
											OFFSET	-0.000	-5.132	-0.000
											CHANNELS	3	Yrotation	Xrotation	Zrotation
											JOINT	LeftFinger3Medial
											{
												OFFSET	-0.000	-4.496	-0.000
												CHANNELS	3	Yrotation	Xrotation	Zrotation
												JOINT	LeftFinger3Distal
												{
													OFFSET	0.000	-2.965	0.000
													CHANNELS	3	Yrotation	Xrotation	Zrotation
													End Site
													{
														OFFSET	-0.000	-2.868	-0.000
													}
												}
											}
										}
									}
									JOINT	LeftFinger4Metacarpal
									{
										OFFSET	-0.524	-2.624	0.099
										CHANNELS	3	Yrotation	Xrotation	Zrotation
										JOINT	LeftFinger4Proximal
										{
											OFFSET	-0.000	-4.891	0.000
											CHANNELS	3	Yrotation	Xrotation	Zrotation
											JOINT	LeftFinger4Medial
											{
												OFFSET	0.000	-4.243	-0.000
												CHANNELS	3	Yrotation	Xrotation	Zrotation
												JOINT	LeftFinger4Distal
												{
													OFFSET	-0.000	-2.737	0.000
													CHANNELS	3	Yrotation	Xrotation	Zrotation
													End Site
													{
														OFFSET	-0.000	-2.664	-0.000
													}
												}
											}
										}
									}
									JOINT	LeftFinger5Metacarpal
									{
										OFFSET	-1.423	-2.380	0.098
										CHANNELS	3	Yrotation	Xrotation	Zrotation
										JOINT	LeftFinger5Proximal
										{
											OFFSET	-0.000	-4.585	0.000
											CHANNELS	3	Yrotation	Xrotation	Zrotation
											JOINT	LeftFinger5Medial
											{
												OFFSET	-0.000	-3.598	0.000
												CHANNELS	3	Yrotation	Xrotation	Zrotation
												JOINT	LeftFinger5Distal
												{
													OFFSET	0.000	-2.262	-0.000
													CHANNELS	3	Yrotation	Xrotation	Zrotation
													End Site
													{
														OFFSET	-0.000	-2.304	0.000
													}
												}
											}
										}
									}
								}
							}
						}
					}
					JOINT	Neck
					{
						OFFSET	0.000	-19.121	-0.000
						CHANNELS	3	Yrotation	Xrotation	Zrotation
						JOINT	Head
						{
							OFFSET	0.000	-9.861	0.000
							CHANNELS	3	Yrotation	Xrotation	Zrotation
							End Site
							{
								OFFSET	0.000	-14.898	0.000
							}
						}
					}
					JOINT	RightShoulder
					{
						OFFSET	6.642	-11.736	1.807
						CHANNELS	3	Yrotation	Xrotation	Zrotation
						JOINT	RightArm
						{
							OFFSET	0.000	-12.849	0.000
							CHANNELS	3	Yrotation	Xrotation	Zrotation
							JOINT	RightForeArm
							{
								OFFSET	-0.000	-24.625	0.000
								CHANNELS	3	Yrotation	Xrotation	Zrotation
								JOINT	RightHand
								{
									OFFSET	0.000	-27.116	0.000
									CHANNELS	3	Yrotation	Xrotation	Zrotation
									JOINT	RightFinger1Metacarpal
									{
										OFFSET	-2.664	-1.988	0.098
										CHANNELS	3	Yrotation	Xrotation	Zrotation
										JOINT	RightFinger1Proximal
										{
											OFFSET	-0.000	-3.769	0.000
											CHANNELS	3	Yrotation	Xrotation	Zrotation
											JOINT	RightFinger1Distal
											{
												OFFSET	-0.000	-2.861	-0.000
												CHANNELS	3	Yrotation	Xrotation	Zrotation
												End Site
												{
													OFFSET	-0.000	-3.269	-0.000
												}
											}
										}
									}
									JOINT	RightFinger2Metacarpal
									{
										OFFSET	-1.534	-2.531	0.099
										CHANNELS	3	Yrotation	Xrotation	Zrotation
										JOINT	RightFinger2Proximal
										{
											OFFSET	0.000	-5.243	-0.000
											CHANNELS	3	Yrotation	Xrotation	Zrotation
											JOINT	RightFinger2Medial
											{
												OFFSET	-0.000	-4.425	0.000
												CHANNELS	3	Yrotation	Xrotation	Zrotation
												JOINT	RightFinger2Distal
												{
													OFFSET	0.000	-2.723	-0.000
													CHANNELS	3	Yrotation	Xrotation	Zrotation
													End Site
													{
														OFFSET	0.000	-2.668	-0.000
													}
												}
											}
										}
									}
									JOINT	RightFinger3Metacarpal
									{
										OFFSET	-0.521	-2.647	0.098
										CHANNELS	3	Yrotation	Xrotation	Zrotation
										JOINT	RightFinger3Proximal
										{
											OFFSET	0.000	-5.132	0.000
											CHANNELS	3	Yrotation	Xrotation	Zrotation
											JOINT	RightFinger3Medial
											{
												OFFSET	-0.000	-4.496	-0.000
												CHANNELS	3	Yrotation	Xrotation	Zrotation
												JOINT	RightFinger3Distal
												{
													OFFSET	0.000	-2.965	0.000
													CHANNELS	3	Yrotation	Xrotation	Zrotation
													End Site
													{
														OFFSET	0.000	-2.868	-0.000
													}
												}
											}
										}
									}
									JOINT	RightFinger4Metacarpal
									{
										OFFSET	0.524	-2.624	0.099
										CHANNELS	3	Yrotation	Xrotation	Zrotation
										JOINT	RightFinger4Proximal
										{
											OFFSET	0.000	-4.891	0.000
											CHANNELS	3	Yrotation	Xrotation	Zrotation
											JOINT	RightFinger4Medial
											{
												OFFSET	0.000	-4.243	-0.000
												CHANNELS	3	Yrotation	Xrotation	Zrotation
												JOINT	RightFinger4Distal
												{
													OFFSET	-0.000	-2.737	0.000
													CHANNELS	3	Yrotation	Xrotation	Zrotation
													End Site
													{
														OFFSET	0.000	-2.664	-0.000
													}
												}
											}
										}
									}
									JOINT	RightFinger5Metacarpal
									{
										OFFSET	1.423	-2.380	0.098
										CHANNELS	3	Yrotation	Xrotation	Zrotation
										JOINT	RightFinger5Proximal
										{
											OFFSET	0.000	-4.585	0.000
											CHANNELS	3	Yrotation	Xrotation	Zrotation
											JOINT	RightFinger5Medial
											{
												OFFSET	0.000	-3.598	0.000
												CHANNELS	3	Yrotation	Xrotation	Zrotation
												JOINT	RightFinger5Distal
												{
													OFFSET	-0.000	-2.262	-0.000
													CHANNELS	3	Yrotation	Xrotation	Zrotation
													End Site
													{
														OFFSET	0.000	-2.304	0.000
													}
												}
											}
										}
									}
								}
							}
						}
					}
				}
			}
		}
	}
}
MOTION
Frames:	4
Frame Time:	0.010
21.658	87.421	0.055	15.435	353.691	-361.412	-88.969	-1.978	-4.103	0.003	0.001	-18.759	-259.401	74.884	-176.140	-0.000	361.767	0.000	-282.545	9.263	-378.992	0.610	-0.175	-327.906	42.761	71.134	-53.521	-0.000	14.355	-1.380	-0.299	0.727	-180.459	-359.701	359.273	-0.459	-359.700	359.271	-0.460	-0.000	-0.000	0.000	-18.502	4.018	-87.378	-125.727	283.209	-336.470	-8.789	359.017	-347.095	0.540	373.521	-373.493	-66.005	5.269	-324.314	-11.267	328.329	-10.030	-0.000	340.909	-0.000	-0.000	0.000	-350.000	-354.262	321.122	-16.348	0.000	318.077	0.000	-0.000	332.051	-0.000	-0.000	-0.000	0.000	-352.327	308.067	-15.111	0.096	306.918	0.271	-0.000	324.491	-0.000	-357.274	357.452	-10.128	-353.593	301.703	-369.486	0.010	300.249	-0.513	-0.000	320.336	-0.000	-354.070	354.881	-20.590	-4.987	300.876	-354.323	0.000	301.614	-0.000	-0.000	321.076	-0.000	7.902	354.468	-358.188	7.902	354.468	-358.188	-341.916	358.573	-278.728	-288.185	320.709	-25.653	-371.145	313.936	-61.109	-354.372	-11.553	-344.519	-273.757	18.297	-23.021	-11.030	327.895	-331.883	-0.000	335.752	-0.000	0.000	-0.000	-10.000	-5.641	322.531	-343.469	0.000	319.533	0.000	-0.000	333.022	-0.000	0.000	-0.000	-0.000	-8.066	286.999	-352.216	-3.732	287.729	-0.194	-0.000	310.983	-0.000	-2.726	357.452	-349.872	-383.887	277.703	22.500	-5.435	274.764	10.299	-0.000	304.780	-0.000	-5.930	354.881	-339.410	-338.159	288.112	-20.866	1.156	286.529	-0.218	-0.000	310.915	-0.000	
21.748	87.362	-0.001	15.235	353.651	-361.385	-88.870	-2.086	-3.953	0.004	0.001	-19.133	-259.356	74.664	-176.204	-0.000	361.743	0.000	-282.558	9.313	-379.775	0.613	-0.182	-326.841	45.066	70.605	-51.369	-0.000	15.371	-1.432	-0.303	0.760	-180.477	-359.697	359.240	-0.477	-359.697	359.238	-0.478	-0.000	-0.000	0.000	-18.399	4.028	-87.387	-125.850	283.239	-336.284	-8.807	358.987	-347.120	0.574	373.326	-373.530	-65.980	5.348	-324.293	-11.391	328.573	-9.894	-0.000	341.078	-0.000	-0.000	0.000	-350.000	-354.338	321.267	-16.248	-0.000	318.210	-0.000	-0.000	332.140	-0.000	-0.000	-0.000	0.000	-352.461	308.176	-14.918	0.080	307.038	0.228	-0.000	324.589	-0.000	-357.274	357.452	-10.128	-353.763	301.744	-369.307	0.008	300.387	-0.431	-0.000	320.403	-0.000	-354.070	354.881	-20.590	-5.060	301.005	-354.109	-0.000	301.721	0.000	-0.000	321.148	-0.000	7.856	354.793	-358.181	7.856	354.793	-358.181	-341.810	358.668	-278.772	-288.960	320.713	-25.716	-371.139	313.781	-61.834	-354.184	-11.025	-346.289	-273.739	18.261	-22.963	-11.114	327.789	-331.674	-0.000	335.641	-0.000	0.000	-0.000	-10.000	-5.580	322.842	-343.500	-0.000	319.552	0.000	-0.000	333.035	-0.000	0.000	-0.000	-0.000	-8.153	287.028	-352.003	-3.740	287.800	-0.196	-0.000	311.015	-0.000	-2.726	357.452	-349.872	-385.404	277.745	24.129	-5.277	274.686	10.217	-0.000	304.746	-0.000	-5.930	354.881	-339.410	-338.498	288.142	-20.411	1.070	286.578	-0.188	-0.000	310.957	-0.000	
21.849	87.308	-0.050	15.028	353.598	-361.393	-88.764	-2.164	-3.841	0.004	0.001	-19.471	-259.337	74.445	-176.295	0.000	361.712	0.000	-282.527	9.332	-380.506	0.622	-0.191	-325.836	47.369	69.989	-49.155	0.000	16.415	-1.481	-0.321	0.810	-180.494	-359.679	359.190	-0.494	-359.678	359.187	-0.496	-0.000	-0.000	0.000	-18.341	4.085	-87.369	-125.881	283.264	-336.190	-8.808	358.958	-347.132	0.586	373.267	-373.540	-65.972	5.375	-324.288	-11.433	328.658	-9.861	-0.000	341.135	-0.000	-0.000	0.000	-350.000	-354.371	321.320	-16.191	0.000	318.264	-0.000	-0.000	332.176	-0.000	-0.000	-0.000	0.000	-352.513	308.229	-14.847	0.074	307.092	0.209	-0.000	324.633	-0.000	-357.274	357.452	-10.128	-353.814	301.783	-369.224	0.008	300.449	-0.395	-0.000	320.433	-0.000	-354.070	354.881	-20.590	-5.087	301.064	-354.027	-0.000	301.772	0.000	-0.000	321.181	-0.000	7.781	355.125	-358.150	7.781	355.125	-358.150	-341.736	358.764	-278.772	-289.703	320.697	-25.813	-371.130	313.690	-62.678	-354.358	-11.117	-346.345	-273.732	18.243	-22.941	-11.155	327.737	-331.591	-0.000	335.590	-0.000	0.000	-0.000	-10.000	-5.553	322.982	-343.513	0.000	319.556	-0.000	-0.000	333.038	-0.000	0.000	-0.000	-0.000	-8.179	287.054	-351.924	-3.741	287.847	-0.199	-0.000	311.038	-0.000	-2.726	357.452	-349.872	-386.068	277.762	24.836	-5.201	274.643	10.175	-0.000	304.730	-0.000	-5.930	354.881	-339.410	-338.616	288.165	-20.249	1.025	286.602	-0.173	-0.000	310.978	-0.000	
21.849	87.308	-0.050	15.028	353.598	-361.393	-88.764	-2.164	-3.841	0.004	0.001	-19.471	-259.337	74.445	-176.295	0.000	361.712	0.000	-282.527	9.332	-380.506	0.622	-0.191	-325.836	47.369	69.989	-49.155	0.000	16.415	-1.481	-0.321	0.810	-180.494	-359.679	359.190	-0.494	-359.678	359.187	-0.496	-0.000	-0.000	0.000	-18.341	4.085	-87.369	-125.881	283.264	-336.190	-8.808	358.958	-347.132	0.586	373.267	-373.540	-65.972	5.375	-324.288	-11.433	328.658	-9.861	-0.000	341.135	-0.000	-0.000	0.000	-350.000	-354.371	321.320	-16.191	0.000	318.264	-0.000	-0.000	332.176	-0.000	-0.000	-0.000	0.000	-352.513	308.229	-14.847	0.074	307.092	0.209	-0.000	324.633	-0.000	-357.274	357.452	-10.128	-353.814	301.783	-369.224	0.008	300.449	-0.395	-0.000	320.433	-0.000	-354.070	354.881	-20.590	-5.087	301.064	-354.027	-0.000	301.772	0.000	-0.000	321.181	-0.000	7.781	355.125	-358.150	7.781	355.125	-358.150	-341.736	358.764	-278.772	-289.703	320.697	-25.813	-371.130	313.690	-62.678	-354.358	-11.117	-346.345	-273.732	18.243	-22.941	-11.155	327.737	-331.591	-0.000	335.590	-0.000	0.000	-0.000	-10.000	-5.553	322.982	-343.513	0.000	319.556	-0.000	-0.000	333.038	-0.000	0.000	-0.000	-0.000	-8.179	287.054	-351.924	-3.741	287.847	-0.199	-0.000	311.038	-0.000	-2.726	357.452	-349.872	-386.068	277.762	24.836	-5.201	274.643	10.175	-0.000	304.730	-0.000	-5.930	354.881	-339.410	-338.616	288.165	-20.249	1.025	286.602	-0.173	-0.000	310.978	-0.000	
